{
    "asset" : {
        "generator" : "Khronos glTF Blender I/O v3.4.50",
        "version" : "2.0"
    },
    "extensionsUsed" : [
        "KHR_materials_emissive_strength"
    ],
    "scene" : 0,
    "scenes" : [
        {
            "name" : "Scene",
            "nodes" : [
                0,
                2
            ]
        }
    ],
    "nodes" : [
        {
            "mesh" : 0,
            "name" : "Cube",
            "scale" : [
                0.22672802209854126,
                0.22672802209854126,
                0.22672802209854126
            ],
            "translation" : [
                2.9408442974090576,
                2.988651752471924,
                -0.12154802680015564
            ]
        },
        {
            "mesh" : 1,
            "name" : "Cube.001",
            "scale" : [
                0.292185515165329,
                0.21794049441814423,
                0.2564077079296112
            ]
        },
        {
            "children" : [
                1
            ],
            "mesh" : 2,
            "name" : "Cube.003",
            "rotation" : [
                0,
                -0.7071068286895752,
                0,
                0.7071068286895752
            ],
            "scale" : [
                0.604046106338501,
                0.8098243474960327,
                0.6883316040039062
            ],
            "translation" : [
                -0.006234288215637207,
                0.22884273529052734,
                -0.1312546283006668
            ]
        }
    ],
    "materials" : [
        {
            "doubleSided" : true,
            "emissiveFactor" : [
                1,
                1,
                1
            ],
            "extensions" : {
                "KHR_materials_emissive_strength" : {
                    "emissiveStrength" : 91.99999237060547
                }
            },
            "name" : "Material",
            "pbrMetallicRoughness" : {
                "baseColorFactor" : [
                    0,
                    0,
                    0,
                    1
                ]
            }
        },
        {
            "doubleSided" : true,
            "name" : "Material.080",
            "pbrMetallicRoughness" : {
                "baseColorFactor" : [
                    0.02720877341926098,
                    0.02720877341926098,
                    0.02720877341926098,
                    1
                ],
                "metallicFactor" : 0
            }
        },
        {
            "doubleSided" : true,
            "name" : "Material.044",
            "pbrMetallicRoughness" : {
                "baseColorFactor" : [
                    0.0033785502891987562,
                    0.0033785502891987562,
                    0.0033785502891987562,
                    1
                ],
                "metallicFactor" : 0,
                "roughnessFactor" : 0.6756777167320251
            }
        },
        {
            "doubleSided" : true,
            "name" : "\u0413\u043b\u0430\u0437",
            "pbrMetallicRoughness" : {
                "metallicFactor" : 0,
                "roughnessFactor" : 0.1409091055393219
            }
        }
    ],
    "meshes" : [
        {
            "name" : "Cube",
            "primitives" : [
                {
                    "attributes" : {
                        "POSITION" : 0,
                        "TEXCOORD_0" : 1,
                        "NORMAL" : 2
                    },
                    "indices" : 3,
                    "material" : 0
                }
            ]
        },
        {
            "name" : "Cube.007",
            "primitives" : [
                {
                    "attributes" : {
                        "COLOR_0" : 4,
                        "POSITION" : 5,
                        "TEXCOORD_0" : 6,
                        "NORMAL" : 7
                    },
                    "indices" : 8,
                    "material" : 1
                }
            ]
        },
        {
            "name" : "Cube.011",
            "primitives" : [
                {
                    "attributes" : {
                        "COLOR_0" : 9,
                        "POSITION" : 10,
                        "TEXCOORD_0" : 11,
                        "NORMAL" : 12
                    },
                    "indices" : 13,
                    "material" : 2
                },
                {
                    "attributes" : {
                        "COLOR_0" : 14,
                        "POSITION" : 15,
                        "TEXCOORD_0" : 16,
                        "NORMAL" : 17
                    },
                    "indices" : 18,
                    "material" : 3
                }
            ]
        }
    ],
    "accessors" : [
        {
            "bufferView" : 0,
            "componentType" : 5126,
            "count" : 24,
            "max" : [
                1,
                1,
                1
            ],
            "min" : [
                -1,
                -1,
                -1
            ],
            "type" : "VEC3"
        },
        {
            "bufferView" : 1,
            "componentType" : 5126,
            "count" : 24,
            "type" : "VEC2"
        },
        {
            "bufferView" : 2,
            "componentType" : 5126,
            "count" : 24,
            "type" : "VEC3"
        },
        {
            "bufferView" : 3,
            "componentType" : 5123,
            "count" : 36,
            "type" : "SCALAR"
        },
        {
            "bufferView" : 4,
            "componentType" : 5123,
            "count" : 11983,
            "normalized" : true,
            "type" : "VEC4"
        },
        {
            "bufferView" : 5,
            "componentType" : 5126,
            "count" : 11983,
            "max" : [
                3.7143189907073975,
                10.539993286132812,
                4.215027332305908
            ],
            "min" : [
                -3.692763090133667,
                -4.849755764007568,
                -4.221166133880615
            ],
            "type" : "VEC3"
        },
        {
            "bufferView" : 6,
            "componentType" : 5126,
            "count" : 11983,
            "type" : "VEC2"
        },
        {
            "bufferView" : 7,
            "componentType" : 5126,
            "count" : 11983,
            "type" : "VEC3"
        },
        {
            "bufferView" : 8,
            "componentType" : 5123,
            "count" : 67536,
            "type" : "SCALAR"
        },
        {
            "bufferView" : 9,
            "componentType" : 5123,
            "count" : 36299,
            "normalized" : true,
            "type" : "VEC4"
        },
        {
            "bufferView" : 10,
            "componentType" : 5126,
            "count" : 36299,
            "max" : [
                0.9800769686698914,
                2.3097400665283203,
                1.0649657249450684
            ],
            "min" : [
                -0.9800779819488525,
                -1.2870482206344604,
                -1.065912127494812
            ],
            "type" : "VEC3"
        },
        {
            "bufferView" : 11,
            "componentType" : 5126,
            "count" : 36299,
            "type" : "VEC2"
        },
        {
            "bufferView" : 12,
            "componentType" : 5126,
            "count" : 36299,
            "type" : "VEC3"
        },
        {
            "bufferView" : 13,
            "componentType" : 5123,
            "count" : 194304,
            "type" : "SCALAR"
        },
        {
            "bufferView" : 14,
            "componentType" : 5123,
            "count" : 8249,
            "normalized" : true,
            "type" : "VEC4"
        },
        {
            "bufferView" : 15,
            "componentType" : 5126,
            "count" : 8249,
            "max" : [
                0.828948974609375,
                1.63889479637146,
                0.3466843366622925
            ],
            "min" : [
                0.0388302206993103,
                1.0433707237243652,
                -0.34668534994125366
            ],
            "type" : "VEC3"
        },
        {
            "bufferView" : 16,
            "componentType" : 5126,
            "count" : 8249,
            "type" : "VEC2"
        },
        {
            "bufferView" : 17,
            "componentType" : 5126,
            "count" : 8249,
            "type" : "VEC3"
        },
        {
            "bufferView" : 18,
            "componentType" : 5123,
            "count" : 47616,
            "type" : "SCALAR"
        }
    ],
    "bufferViews" : [
        {
            "buffer" : 0,
            "byteLength" : 288,
            "byteOffset" : 0,
            "target" : 34962
        },
        {
            "buffer" : 0,
            "byteLength" : 192,
            "byteOffset" : 288,
            "target" : 34962
        },
        {
            "buffer" : 0,
            "byteLength" : 288,
            "byteOffset" : 480,
            "target" : 34962
        },
        {
            "buffer" : 0,
            "byteLength" : 72,
            "byteOffset" : 768,
            "target" : 34963
        },
        {
            "buffer" : 0,
            "byteLength" : 95864,
            "byteOffset" : 840,
            "target" : 34962
        },
        {
            "buffer" : 0,
            "byteLength" : 143796,
            "byteOffset" : 96704,
            "target" : 34962
        },
        {
            "buffer" : 0,
            "byteLength" : 95864,
            "byteOffset" : 240500,
            "target" : 34962
        },
        {
            "buffer" : 0,
            "byteLength" : 143796,
            "byteOffset" : 336364,
            "target" : 34962
        },
        {
            "buffer" : 0,
            "byteLength" : 135072,
            "byteOffset" : 480160,
            "target" : 34963
        },
        {
            "buffer" : 0,
            "byteLength" : 290392,
            "byteOffset" : 615232,
            "target" : 34962
        },
        {
            "buffer" : 0,
            "byteLength" : 435588,
            "byteOffset" : 905624,
            "target" : 34962
        },
        {
            "buffer" : 0,
            "byteLength" : 290392,
            "byteOffset" : 1341212,
            "target" : 34962
        },
        {
            "buffer" : 0,
            "byteLength" : 435588,
            "byteOffset" : 1631604,
            "target" : 34962
        },
        {
            "buffer" : 0,
            "byteLength" : 388608,
            "byteOffset" : 2067192,
            "target" : 34963
        },
        {
            "buffer" : 0,
            "byteLength" : 65992,
            "byteOffset" : 2455800,
            "target" : 34962
        },
        {
            "buffer" : 0,
            "byteLength" : 98988,
            "byteOffset" : 2521792,
            "target" : 34962
        },
        {
            "buffer" : 0,
            "byteLength" : 65992,
            "byteOffset" : 2620780,
            "target" : 34962
        },
        {
            "buffer" : 0,
            "byteLength" : 98988,
            "byteOffset" : 2686772,
            "target" : 34962
        },
        {
            "buffer" : 0,
            "byteLength" : 95232,
            "byteOffset" : 2785760,
            "target" : 34963
        }
    ],
    "buffers" : [
        {
            "byteLength" : 2880992,
            "uri" : "\u0414\u043b\u044f \u0441\u0430\u0439\u0442\u0430 \u0410\u043d\u0438\u043c\u0430\u0446\u0438\u044f \u043f\u043e\u0432\u043e\u0440\u043e\u0442\u0430 .bin"
        }
    ]
}
