{
    "asset" : {
        "generator" : "Khronos glTF Blender I/O v3.4.50",
        "version" : "2.0"
    },
    "extensionsUsed" : [
        "KHR_texture_transform"
    ],
    "extensionsRequired" : [
        "KHR_texture_transform"
    ],
    "scene" : 0,
    "scenes" : [
        {
            "name" : "Scene",
            "nodes" : [
                1
            ]
        }
    ],
    "nodes" : [
        {
            "mesh" : 0,
            "name" : "Cube.001",
            "scale" : [
                0.292185515165329,
                0.21794049441814423,
                0.2564077079296112
            ]
        },
        {
            "children" : [
                0
            ],
            "mesh" : 1,
            "name" : "Cube.003",
            "rotation" : [
                0,
                -0.7071068286895752,
                0,
                0.7071068286895752
            ],
            "scale" : [
                0.604046106338501,
                0.8098243474960327,
                0.6883316040039062
            ],
            "translation" : [
                -0.006234288215637207,
                0.22884273529052734,
                -0.1312546283006668
            ]
        }
    ],
    "animations" : [
        {
            "channels" : [
                {
                    "sampler" : 0,
                    "target" : {
                        "node" : 1,
                        "path" : "rotation"
                    }
                }
            ],
            "name" : "Cube.003Action",
            "samplers" : [
                {
                    "input" : 15,
                    "interpolation" : "LINEAR",
                    "output" : 16
                }
            ]
        },
        {
            "channels" : [
                {
                    "sampler" : 0,
                    "target" : {
                        "node" : 0,
                        "path" : "translation"
                    }
                },
                {
                    "sampler" : 1,
                    "target" : {
                        "node" : 0,
                        "path" : "rotation"
                    }
                },
                {
                    "sampler" : 2,
                    "target" : {
                        "node" : 0,
                        "path" : "scale"
                    }
                }
            ],
            "name" : "Cube.001",
            "samplers" : [
                {
                    "input" : 15,
                    "interpolation" : "LINEAR",
                    "output" : 17
                },
                {
                    "input" : 15,
                    "interpolation" : "LINEAR",
                    "output" : 18
                },
                {
                    "input" : 15,
                    "interpolation" : "LINEAR",
                    "output" : 19
                }
            ]
        }
    ],
    "materials" : [
        {
            "doubleSided" : true,
            "name" : "Material.080",
            "pbrMetallicRoughness" : {
                "baseColorFactor" : [
                    0.02720877341926098,
                    0.02720877341926098,
                    0.02720877341926098,
                    1
                ],
                "metallicFactor" : 0,
                "metallicRoughnessTexture" : {
                    "extensions" : {
                        "KHR_texture_transform" : {
                            "offset" : [
                                0,
                                -4
                            ],
                            "scale" : [
                                5,
                                5
                            ]
                        }
                    },
                    "index" : 0
                }
            }
        },
        {
            "doubleSided" : true,
            "name" : "Material.044",
            "pbrMetallicRoughness" : {
                "baseColorFactor" : [
                    0.0033785502891987562,
                    0.0033785502891987562,
                    0.0033785502891987562,
                    1
                ],
                "metallicFactor" : 0,
                "roughnessFactor" : 0.6756777167320251
            }
        },
        {
            "doubleSided" : true,
            "name" : "\u0413\u043b\u0430\u0437",
            "pbrMetallicRoughness" : {
                "metallicFactor" : 0,
                "roughnessFactor" : 0.1409091055393219
            }
        }
    ],
    "meshes" : [
        {
            "name" : "Cube.007",
            "primitives" : [
                {
                    "attributes" : {
                        "COLOR_0" : 0,
                        "POSITION" : 1,
                        "TEXCOORD_0" : 2,
                        "NORMAL" : 3
                    },
                    "indices" : 4,
                    "material" : 0
                }
            ]
        },
        {
            "name" : "Cube.011",
            "primitives" : [
                {
                    "attributes" : {
                        "COLOR_0" : 5,
                        "POSITION" : 6,
                        "TEXCOORD_0" : 7,
                        "NORMAL" : 8
                    },
                    "indices" : 9,
                    "material" : 1
                },
                {
                    "attributes" : {
                        "COLOR_0" : 10,
                        "POSITION" : 11,
                        "TEXCOORD_0" : 12,
                        "NORMAL" : 13
                    },
                    "indices" : 14,
                    "material" : 2
                }
            ]
        }
    ],
    "textures" : [
        {
            "sampler" : 0,
            "source" : 0
        }
    ],
    "images" : [
        {
            "bufferView" : 5,
            "mimeType" : "image/png",
            "name" : "Image"
        }
    ],
    "accessors" : [
        {
            "bufferView" : 0,
            "componentType" : 5123,
            "count" : 11983,
            "normalized" : true,
            "type" : "VEC4"
        },
        {
            "bufferView" : 1,
            "componentType" : 5126,
            "count" : 11983,
            "max" : [
                3.7143189907073975,
                10.539993286132812,
                4.215027332305908
            ],
            "min" : [
                -3.692763090133667,
                -4.849755764007568,
                -4.221166133880615
            ],
            "type" : "VEC3"
        },
        {
            "bufferView" : 2,
            "componentType" : 5126,
            "count" : 11983,
            "type" : "VEC2"
        },
        {
            "bufferView" : 3,
            "componentType" : 5126,
            "count" : 11983,
            "type" : "VEC3"
        },
        {
            "bufferView" : 4,
            "componentType" : 5123,
            "count" : 67536,
            "type" : "SCALAR"
        },
        {
            "bufferView" : 6,
            "componentType" : 5123,
            "count" : 36299,
            "normalized" : true,
            "type" : "VEC4"
        },
        {
            "bufferView" : 7,
            "componentType" : 5126,
            "count" : 36299,
            "max" : [
                0.9800769686698914,
                2.3097400665283203,
                1.0649657249450684
            ],
            "min" : [
                -0.9800779819488525,
                -1.2870482206344604,
                -1.065912127494812
            ],
            "type" : "VEC3"
        },
        {
            "bufferView" : 8,
            "componentType" : 5126,
            "count" : 36299,
            "type" : "VEC2"
        },
        {
            "bufferView" : 9,
            "componentType" : 5126,
            "count" : 36299,
            "type" : "VEC3"
        },
        {
            "bufferView" : 10,
            "componentType" : 5123,
            "count" : 194304,
            "type" : "SCALAR"
        },
        {
            "bufferView" : 11,
            "componentType" : 5123,
            "count" : 8249,
            "normalized" : true,
            "type" : "VEC4"
        },
        {
            "bufferView" : 12,
            "componentType" : 5126,
            "count" : 8249,
            "max" : [
                0.828948974609375,
                1.63889479637146,
                0.3466843366622925
            ],
            "min" : [
                0.0388302206993103,
                1.0433707237243652,
                -0.34668534994125366
            ],
            "type" : "VEC3"
        },
        {
            "bufferView" : 13,
            "componentType" : 5126,
            "count" : 8249,
            "type" : "VEC2"
        },
        {
            "bufferView" : 14,
            "componentType" : 5126,
            "count" : 8249,
            "type" : "VEC3"
        },
        {
            "bufferView" : 15,
            "componentType" : 5123,
            "count" : 47616,
            "type" : "SCALAR"
        },
        {
            "bufferView" : 16,
            "componentType" : 5126,
            "count" : 145,
            "max" : [
                6
            ],
            "min" : [
                0
            ],
            "type" : "SCALAR"
        },
        {
            "bufferView" : 17,
            "componentType" : 5126,
            "count" : 145,
            "type" : "VEC4"
        },
        {
            "bufferView" : 18,
            "componentType" : 5126,
            "count" : 145,
            "type" : "VEC3"
        },
        {
            "bufferView" : 19,
            "componentType" : 5126,
            "count" : 145,
            "type" : "VEC4"
        },
        {
            "bufferView" : 20,
            "componentType" : 5126,
            "count" : 145,
            "type" : "VEC3"
        }
    ],
    "bufferViews" : [
        {
            "buffer" : 0,
            "byteLength" : 95864,
            "byteOffset" : 0,
            "target" : 34962
        },
        {
            "buffer" : 0,
            "byteLength" : 143796,
            "byteOffset" : 95864,
            "target" : 34962
        },
        {
            "buffer" : 0,
            "byteLength" : 95864,
            "byteOffset" : 239660,
            "target" : 34962
        },
        {
            "buffer" : 0,
            "byteLength" : 143796,
            "byteOffset" : 335524,
            "target" : 34962
        },
        {
            "buffer" : 0,
            "byteLength" : 135072,
            "byteOffset" : 479320,
            "target" : 34963
        },
        {
            "buffer" : 0,
            "byteLength" : 90,
            "byteOffset" : 614392
        },
        {
            "buffer" : 0,
            "byteLength" : 290392,
            "byteOffset" : 614484,
            "target" : 34962
        },
        {
            "buffer" : 0,
            "byteLength" : 435588,
            "byteOffset" : 904876,
            "target" : 34962
        },
        {
            "buffer" : 0,
            "byteLength" : 290392,
            "byteOffset" : 1340464,
            "target" : 34962
        },
        {
            "buffer" : 0,
            "byteLength" : 435588,
            "byteOffset" : 1630856,
            "target" : 34962
        },
        {
            "buffer" : 0,
            "byteLength" : 388608,
            "byteOffset" : 2066444,
            "target" : 34963
        },
        {
            "buffer" : 0,
            "byteLength" : 65992,
            "byteOffset" : 2455052,
            "target" : 34962
        },
        {
            "buffer" : 0,
            "byteLength" : 98988,
            "byteOffset" : 2521044,
            "target" : 34962
        },
        {
            "buffer" : 0,
            "byteLength" : 65992,
            "byteOffset" : 2620032,
            "target" : 34962
        },
        {
            "buffer" : 0,
            "byteLength" : 98988,
            "byteOffset" : 2686024,
            "target" : 34962
        },
        {
            "buffer" : 0,
            "byteLength" : 95232,
            "byteOffset" : 2785012,
            "target" : 34963
        },
        {
            "buffer" : 0,
            "byteLength" : 580,
            "byteOffset" : 2880244
        },
        {
            "buffer" : 0,
            "byteLength" : 2320,
            "byteOffset" : 2880824
        },
        {
            "buffer" : 0,
            "byteLength" : 1740,
            "byteOffset" : 2883144
        },
        {
            "buffer" : 0,
            "byteLength" : 2320,
            "byteOffset" : 2884884
        },
        {
            "buffer" : 0,
            "byteLength" : 1740,
            "byteOffset" : 2887204
        }
    ],
    "samplers" : [
        {
            "magFilter" : 9729,
            "minFilter" : 9987
        }
    ],
    "buffers" : [
        {
            "byteLength" : 2888944,
            "uri" : "data:application/octet-stream;base64,"
        }
    ]
}
